<svg xmlns="http://www.w3.org/2000/svg" viewBox="0 0 260.77 259.99"><defs><style>.cls-1{font-size:31px;font-family:Roboto-Light, Roboto;font-weight:300;}.cls-1,.cls-2{fill:#231f20;}</style></defs><g id="Layer_2" data-name="Layer 2"><g id="Layer_1-2" data-name="Layer 1"><text class="cls-1" transform="matrix(0.99, 0.15, -0.15, 0.99, 141.79, 26.26)">I</text><text class="cls-1" transform="translate(151.25 27.46) rotate(16.21)">n</text><text class="cls-1" transform="matrix(0.91, 0.41, -0.41, 0.91, 168.68, 32.88)">t</text><text class="cls-1" transform="translate(178.96 37.41) rotate(32.25)">e</text><text class="cls-1" transform="matrix(0.76, 0.65, -0.65, 0.76, 193.4, 46.85)">r</text><text class="cls-1" transform="translate(202 53.9) rotate(47.97)">a</text><text class="cls-1" transform="translate(213.77 67.14) rotate(57.51)">c</text><text class="cls-1" transform="translate(222.77 81.82) rotate(65.37)">t</text><text class="cls-1" transform="translate(227.4 92.24) rotate(70.86)">i</text><text class="cls-1" transform="matrix(0.2, 0.98, -0.98, 0.2, 230.35, 99.98)">o</text><text class="cls-1" transform="matrix(0.03, 1, -1, 0.03, 233.97, 118.07)">n</text><text class="cls-1" transform="translate(234.1 136.39) rotate(95.75)"> </text><text class="cls-1" transform="matrix(-0.24, 0.97, -0.97, -0.24, 233.6, 145.17)">D</text><text class="cls-1" transform="translate(228.12 165.76) rotate(114.74)">e</text><text class="cls-1" transform="matrix(-0.56, 0.83, -0.83, -0.56, 220.85, 181.27)">s</text><text class="cls-1" transform="translate(211.02 195.16) rotate(131.05)">i</text><text class="cls-1" transform="translate(205.76 201.57) rotate(138.38)">g</text><text class="cls-1" transform="matrix(-0.85, 0.52, -0.52, -0.85, 192.02, 213.65)">n</text><text class="cls-1" transform="matrix(-0.93, 0.37, -0.37, -0.93, 176.52, 223.04)">e</text><text class="cls-1" transform="translate(160.42 229.2) rotate(166.13)">r</text><text class="cls-1" transform="translate(148.88 231.9) rotate(171.9)"> </text><text class="cls-1" transform="translate(139.9 233.11) rotate(176.87)"> </text><text class="cls-1" transform="translate(130.83 233.54) rotate(-178.21)"> </text><text class="cls-1" transform="matrix(-0.99, -0.12, 0.12, -0.99, 121.81, 233.21)">I</text><text class="cls-1" transform="matrix(-0.97, -0.25, 0.25, -0.97, 112.3, 232.26)">n</text><text class="cls-1" transform="matrix(-0.92, -0.39, 0.39, -0.92, 94.75, 227.33)">t</text><text class="cls-1" transform="translate(84.34 223.09) rotate(-149.32)">e</text><text class="cls-1" transform="matrix(-0.78, -0.62, 0.62, -0.78, 69.64, 214.04)">r</text><text class="cls-1" transform="translate(60.86 207.24) rotate(-133.6)">a</text><text class="cls-1" transform="translate(48.73 194.32) rotate(-124.06)">c</text><text class="cls-1" transform="translate(39.33 179.9) rotate(-116.22)">t</text><text class="cls-1" transform="translate(34.41 169.59) rotate(-110.72)">i</text><text class="cls-1" transform="translate(31.24 161.94) rotate(-103.24)">o</text><text class="cls-1" transform="matrix(-0.06, -1, 1, -0.06, 27.13, 143.98)">n</text><text class="cls-1" transform="translate(26.5 125.65) rotate(-85.81)"> </text><text class="cls-1" transform="matrix(0.22, -0.98, 0.98, 0.22, 26.77, 116.87)">D</text><text class="cls-1" transform="matrix(0.39, -0.92, 0.92, 0.39, 31.68, 96.12)">e</text><text class="cls-1" transform="translate(38.51 80.42) rotate(-57.46)">s</text><text class="cls-1" transform="translate(47.96 66.26) rotate(-50.51)">i</text><text class="cls-1" transform="translate(53.03 59.72) rotate(-43.19)">g</text><text class="cls-1" transform="matrix(0.84, -0.55, 0.55, 0.84, 66.44, 47.28)">n</text><text class="cls-1" transform="matrix(0.92, -0.4, 0.4, 0.92, 81.69, 37.46)">e</text><text class="cls-1" transform="matrix(0.96, -0.27, 0.27, 0.96, 97.6, 30.85)">r</text><circle class="cls-2" cx="122.83" cy="15.29" r="7.55"/><circle class="cls-2" cx="137.92" cy="242.34" r="7.55"/></g></g></svg>