<svg xmlns="http://www.w3.org/2000/svg" xmlns:xlink="http://www.w3.org/1999/xlink" width="24" height="24" viewBox="0 0 24 24"><defs><linearGradient id="a" x1="1" y1="1" x2="0" y2="0.277" gradientUnits="objectBoundingBox"><stop offset="0" stop-color="#8bc34a"/><stop offset="1" stop-color="#89eb90"/></linearGradient></defs><rect width="24" height="24" fill="none"/><path d="M10,20A10,10,0,1,1,20,10,10,10,0,0,1,10,20Z" transform="translate(2 2)" opacity="0.4" fill="url(#a)"/><path d="M3.048,6.947.218,4.117a.75.75,0,0,1,1.06-1.06l2.3,2.3L8.718.218a.75.75,0,0,1,1.06,1.06l-5.67,5.67a.748.748,0,0,1-1.06,0Z" transform="translate(7.002 8.413)" fill="url(#a)"/><path d="M24,0V24H0V0Z" fill="none" opacity="0"/></svg>