<svg xmlns="http://www.w3.org/2000/svg" xmlns:xlink="http://www.w3.org/1999/xlink" width="50" height="50" viewBox="0 0 50 50"><defs><linearGradient id="a" x1="0.893" y1="0.874" x2="0.117" gradientUnits="objectBoundingBox"><stop offset="0" stop-color="#ffa41e"/><stop offset="1" stop-color="#ffda60"/></linearGradient></defs><rect width="50" height="50" fill="none"/><path d="M50,0V50H0V0Z" fill="none" opacity="0"/><g transform="translate(2.604 44.271)"><path d="M1.563,3.125A1.574,1.574,0,0,1,0,1.563,1.574,1.574,0,0,1,1.563,0H43.229a1.574,1.574,0,0,1,1.563,1.563,1.574,1.574,0,0,1-1.562,1.563Z" fill="url(#a)"/></g><path d="M37.6,40.557H0L.1,15.495a4.135,4.135,0,0,1,1.6-3.271L16.292.891a4.132,4.132,0,0,1,5.125,0l2.792,2.167,9.229,7.167,2.563,2a4.145,4.145,0,0,1,1.6,3.292Z" transform="translate(6.144 5.276)" opacity="0.4" fill="url(#a)"/><path d="M3.125,0A3.121,3.121,0,0,0,0,3.125v7.292H10.417V3.125A3.121,3.121,0,0,0,7.292,0Z" transform="translate(19.792 35.417)" fill="url(#a)"/><path d="M2.083,7.292A2.089,2.089,0,0,1,0,5.208V2.083A2.089,2.089,0,0,1,2.083,0H6.25A2.089,2.089,0,0,1,8.333,2.083V5.208A2.089,2.089,0,0,1,6.25,7.292Z" transform="translate(13.542 21.354)" fill="url(#a)"/><path d="M2.083,7.292A2.089,2.089,0,0,1,0,5.208V2.083A2.089,2.089,0,0,1,2.083,0H6.25A2.089,2.089,0,0,1,8.333,2.083V5.208A2.089,2.089,0,0,1,6.25,7.292Z" transform="translate(28.125 21.354)" fill="url(#a)"/><path d="M0,0H7.1A2.072,2.072,0,0,1,9.187,2.062l.042,5.1Z" transform="translate(30.355 8.333)" fill="url(#a)"/></svg>