<svg id="vuesax_bulk_flag" data-name="vuesax/bulk/flag" xmlns="http://www.w3.org/2000/svg" xmlns:xlink="http://www.w3.org/1999/xlink" width="50" height="50" viewBox="0 0 50 50">
  <defs>
    <linearGradient id="linear-gradient" x1="-2.755" y1="-0.064" x2="4.347" y2="0.913" gradientUnits="objectBoundingBox">
      <stop offset="0" stop-color="#ffa41e"/>
      <stop offset="1" stop-color="#ffda60"/>
    </linearGradient>
  </defs>
  <rect id="vuesax_bulk_flag_Background_" data-name="vuesax/bulk/flag (Background)" width="50" height="50" fill="none"/>
  <g id="vuesax_bulk_flag-2" data-name="vuesax/bulk/flag">
    <g id="flag">
      <path id="Vector" d="M0,38.542V0" transform="translate(10.73 5.729)" fill="#292d32"/>
      <path id="Vector-2" data-name="Vector" d="M0,40.1V1.563A1.574,1.574,0,0,1,1.563,0,1.574,1.574,0,0,1,3.125,1.563V40.1a1.574,1.574,0,0,1-1.562,1.563A1.574,1.574,0,0,1,0,40.1Z" transform="translate(9.167 4.167)" fill="url(#linear-gradient)"/>
      <path id="Vector-3" data-name="Vector" d="M25.062,15.625a2.9,2.9,0,0,1-.979-2.146A3.438,3.438,0,0,1,25.1,10.917l2.5-2.5c2.167-2.167,2.979-4.25,2.292-5.9C29.229.9,27.167,0,24.125,0H.792A.823.823,0,0,0,0,.813v25a.791.791,0,0,0,.792.792H24.125c3,0,5.021-.917,5.708-2.562.688-1.667-.1-3.729-2.229-5.875Z" transform="translate(9.937 7.521)" opacity="0.4" fill="url(#linear-gradient)"/>
      <path id="Vector-4" data-name="Vector" d="M50,0V50H0V0Z" fill="none" opacity="0"/>
    </g>
  </g>
</svg>
