<svg xmlns="http://www.w3.org/2000/svg" xmlns:xlink="http://www.w3.org/1999/xlink" width="50" height="50" viewBox="0 0 50 50"><defs><linearGradient id="a" x1="0.5" x2="0.5" y2="1" gradientUnits="objectBoundingBox"><stop offset="0" stop-color="#ffa41e"/><stop offset="1" stop-color="#ffda60"/></linearGradient></defs><rect width="50" height="50" fill="none"/><path d="M26.187,42.938a1.58,1.58,0,0,1,1.1-1.917A19.278,19.278,0,0,0,22.375,3.1c-9.021,0-14.937,5.271-17.708,8.458h6.125a1.573,1.573,0,0,1,.021,3.146H1.583a1.586,1.586,0,0,1-.438-.063,1.873,1.873,0,0,1-.5-.25,1.373,1.373,0,0,1-.437-.479A1.807,1.807,0,0,1,0,13.271V3.646A1.574,1.574,0,0,1,1.563,2.083,1.574,1.574,0,0,1,3.125,3.646V8.625A26.163,26.163,0,0,1,22.4,0,22.4,22.4,0,0,1,28.1,44.062a2.552,2.552,0,0,1-.4.042A1.576,1.576,0,0,1,26.187,42.938Z" transform="translate(2.604 2.604)" opacity="0.4" fill="url(#a)"/><path d="M20.771,23.9a21.777,21.777,0,0,1-6.5-1.457A1.563,1.563,0,1,1,15.4,19.521,19.222,19.222,0,0,0,21,20.792h.021a1.558,1.558,0,0,1,1.459,1.582v.084a1.585,1.585,0,0,1-1.562,1.459A.328.328,0,0,1,20.771,23.9ZM8.458,19.1a22.587,22.587,0,0,1-4.541-4.9,1.524,1.524,0,0,1-.292-.876,1.541,1.541,0,0,1,.688-1.292,1.586,1.586,0,0,1,2.168.4,18.846,18.846,0,0,0,3.938,4.209A1.577,1.577,0,0,1,11,17.854a1.614,1.614,0,0,1-.334,1,1.594,1.594,0,0,1-2.209.249ZM1,8.188A22.349,22.349,0,0,1,0,1.562,1.574,1.574,0,0,1,1.562,0,1.575,1.575,0,0,1,3.126,1.562a19.4,19.4,0,0,0,.853,5.689,1.775,1.775,0,0,1,.064.478A1.545,1.545,0,0,1,2.959,9.208a1.916,1.916,0,0,1-.48.062A1.526,1.526,0,0,1,1,8.188Z" transform="translate(2.604 23.438)" fill="url(#a)"/><path d="M8.333,16.667a8.333,8.333,0,1,1,8.333-8.333A8.333,8.333,0,0,1,8.333,16.667Z" transform="translate(16.667 16.667)" opacity="0.4" fill="url(#a)"/><path d="M50,0V50H0V0Z" fill="none" opacity="0"/></svg>