<svg id="vuesax_bulk_message-question" data-name="vuesax/bulk/message-question" xmlns="http://www.w3.org/2000/svg" xmlns:xlink="http://www.w3.org/1999/xlink" width="49" height="49" viewBox="0 0 49 49">
  <defs>
    <linearGradient id="linear-gradient" x1="0.5" x2="0.5" y2="1" gradientUnits="objectBoundingBox">
      <stop offset="0" stop-color="#ffa41e"/>
      <stop offset="1" stop-color="#ffda60"/>
    </linearGradient>
    <linearGradient id="linear-gradient-2" x1="0.909" y1="0.888" x2="0.08" y2="0.101" gradientUnits="objectBoundingBox">
      <stop offset="0" stop-color="#ffa41e"/>
      <stop offset="0.648" stop-color="#ffaf2c"/>
      <stop offset="1" stop-color="#ffda60"/>
    </linearGradient>
  </defs>
  <rect id="vuesax_bulk_message-question_Background_" data-name="vuesax/bulk/message-question (Background)" width="49" height="49" fill="none"/>
  <g id="vuesax_bulk_message-question-2" data-name="vuesax/bulk/message-question">
    <g id="message-question">
      <path id="Vector" d="M49,0V49H0V0Z" fill="none" opacity="0"/>
      <path id="Vector-2" data-name="Vector" d="M22.458,32.667,13.373,38.71a2.035,2.035,0,0,1-3.165-1.695V32.667C4.083,32.667,0,28.583,0,22.458V10.208C0,4.083,4.083,0,10.208,0H30.625C36.75,0,40.833,4.083,40.833,10.208v12.25c0,6.125-4.083,10.208-10.208,10.208Z" transform="translate(4.083 4.961)" opacity="0.4" fill="url(#linear-gradient)"/>
      <g id="Group" transform="translate(19.579 12.474)">
        <path id="Vector-3" data-name="Vector" d="M3.389,10.719V10.29A4.751,4.751,0,0,1,5.778,6.309c.755-.51,1-.857,1-1.388a1.858,1.858,0,1,0-3.716,0A1.542,1.542,0,0,1,1.531,6.452,1.542,1.542,0,0,1,0,4.92a4.92,4.92,0,1,1,9.841,0A4.683,4.683,0,0,1,7.493,8.84c-.8.531-1.041.878-1.041,1.45v.429a1.531,1.531,0,0,1-3.062,0Z" fill="url(#linear-gradient-2)"/>
      </g>
      <g id="Group-2" data-name="Group" transform="translate(22.969 26.746)">
        <path id="Vector-4" data-name="Vector" d="M0,1.531A1.542,1.542,0,0,1,1.531,0,1.531,1.531,0,1,1,0,1.531Z" fill="url(#linear-gradient)"/>
      </g>
    </g>
  </g>
</svg>
