<svg xmlns="http://www.w3.org/2000/svg"  viewBox="0 0 48 48" width="48px" height="48px"><path fill="#90caf9" d="M40,45H8V3h32V45z"/><path fill="#e57373" d="M47.7,35.3L46.4,34L42,38.4l1.3,1.3c0.4,0.4,1.1,0.4,1.6,0l2.8-2.8C48.1,36.4,48.1,35.7,47.7,35.3z"/><path fill="#ff9800" d="M31.8,19.5l12.3,12.3l-4.4,4.4L27.5,23.8L31.8,19.5z"/><path fill="#b0bec5" d="M42,38.3l-2.2-2.2l4.4-4.4l2.2,2.2L42,38.3z"/><path fill="#ffc107" d="M31.8,19.5L26,18l1.5,5.8L31.8,19.5z"/><path fill="#37474f" d="M29,18.7L26,18l0.7,3L29,18.7z"/><path fill="#455a64" d="M23.677,37L20,27.807v-6.504l4.168,6.252l1.664-1.109l-5.72-8.58C22.334,17.357,24,15.373,24,13	c0-2.757-2.243-5-5-5s-5,2.243-5,5c0,2.307,1.578,4.234,3.706,4.809l-5.548,8.651l1.684,1.08L18,21.056v6.751L14.323,37H12v2h3.677	L19,30.693L22.323,39H26v-2H23.677z M16,13c0-1.654,1.346-3,3-3s3,1.346,3,3s-1.346,3-3,3S16,14.654,16,13z"/></svg>