<?xml version="1.0" encoding="utf-8"?>
<!-- Generator: Adobe Illustrator 25.3.1, SVG Export Plug-In . SVG Version: 6.00 Build 0)  -->
<svg version="1.1" id="Layer_1" xmlns="http://www.w3.org/2000/svg" xmlns:xlink="http://www.w3.org/1999/xlink" x="0px" y="0px"
	 viewBox="0 0 260.8 260" style="enable-background:new 0 0 260.8 260;" xml:space="preserve">
<style type="text/css">
	.st0{enable-background:new    ;}
	.st1{fill:#FFFFFF;}
</style>
<g id="Layer_2_1_">
	<g id="Layer_1-2">
		<g class="st0">
			<path class="st1" d="M146.8,27l-1.8-0.3l3.3-21.8l1.8,0.3L146.8,27z"/>
		</g>
		<g class="st0">
			<path class="st1" d="M159.7,12.9l-0.7,2.7c0.9-0.8,1.8-1.3,2.9-1.6c1-0.3,2.1-0.2,3.1,0.1c1.7,0.5,2.8,1.3,3.4,2.5
				c0.5,1.2,0.5,2.7,0,4.6l-3,10.3l-1.7-0.5l3-10.3c0.4-1.4,0.4-2.5,0-3.4c-0.4-0.9-1.2-1.5-2.5-1.8c-1.1-0.3-2.1-0.3-3.2,0.2
				c-1,0.4-1.9,1.2-2.6,2.2l-3.1,10.8l-1.7-0.5l4.6-15.7L159.7,12.9z"/>
		</g>
		<g class="st0">
			<path class="st1" d="M181.8,16.3l-1.7,3.8l3.1,1.4l-0.6,1.3l-3.1-1.4l-4.5,9.9c-0.4,0.8-0.5,1.5-0.4,2c0.1,0.5,0.5,1,1.2,1.3
				c0.3,0.1,0.7,0.3,1.4,0.5l-0.5,1.4c-0.5,0-1.1-0.2-1.9-0.6c-1.1-0.5-1.8-1.2-2-2.1c-0.2-0.9,0-2,0.5-3.2l4.5-9.9l-2.7-1.2
				l0.6-1.3l2.7,1.2l1.7-3.8L181.8,16.3z"/>
		</g>
		<g class="st0">
			<path class="st1" d="M186.2,42.3c-1.2-0.7-2.1-1.7-2.6-2.9c-0.6-1.2-0.8-2.5-0.7-3.8c0.1-1.4,0.6-2.7,1.4-4l0.3-0.6
				c0.8-1.3,1.9-2.4,3-3.1c1.2-0.7,2.4-1.1,3.7-1.2c1.3,0,2.5,0.3,3.6,1c1.7,1.1,2.7,2.5,2.9,4.2c0.3,1.8-0.2,3.6-1.5,5.6l-0.5,0.9
				l-9.9-6.2l-0.2,0.3c-1,1.6-1.4,3.2-1.1,4.8c0.2,1.6,1,2.9,2.4,3.7c0.8,0.5,1.6,0.8,2.5,0.9c0.8,0.1,1.7,0,2.6-0.4l0.5,1.3
				C190.5,43.9,188.3,43.7,186.2,42.3z M194.1,29.1c-1.2-0.7-2.4-0.9-3.7-0.6c-1.3,0.3-2.5,1.2-3.6,2.5l8.3,5.2l0.1-0.2
				c0.8-1.4,1.1-2.7,0.9-4C196,30.8,195.3,29.8,194.1,29.1z"/>
		</g>
		<g class="st0">
			<path class="st1" d="M210.6,42c-0.2-0.3-0.5-0.6-0.9-0.9c-0.9-0.7-1.8-1.1-2.8-1.1c-1,0-2,0.3-3.1,1l-7.3,8.5l-1.4-1.2l10.6-12.4
				l1.3,1.2l-1.7,2c2-0.9,3.8-0.6,5.4,0.8c0.4,0.3,0.6,0.6,0.8,0.9L210.6,42z"/>
		</g>
		<g class="st0">
			<path class="st1" d="M210.5,63.3c0.3-0.5,0.7-1.1,1.5-1.8c-1,0.1-2.1-0.1-3-0.5c-1-0.4-1.9-1.1-2.6-1.9c-1.1-1.2-1.6-2.4-1.6-3.7
				c0-1.3,0.5-2.4,1.5-3.3c1.2-1.1,2.6-1.4,4.1-1.1c1.6,0.4,3.2,1.4,4.7,3.2l2.2,2.4l1.4-1.2c0.9-0.8,1.3-1.7,1.3-2.7
				c0-1-0.4-2-1.4-3c-0.8-0.9-1.8-1.5-2.8-1.7c-1-0.2-1.9,0-2.6,0.6l-1.2-1.4c1-0.9,2.2-1.2,3.7-0.9c1.5,0.3,2.9,1,4.1,2.4
				c1.2,1.4,1.8,2.7,1.9,4.1c0,1.4-0.6,2.7-1.8,3.8l-5.8,5.2c-1.2,1.1-1.9,2-2.3,2.8l-0.1,0.1L210.5,63.3z M207.7,58.2
				c0.8,0.9,1.8,1.5,2.8,1.8c1.1,0.3,2.1,0.3,3.1,0l2.7-2.4l-2.2-2.4c-1.2-1.3-2.4-2.2-3.6-2.5s-2.2-0.1-3,0.6c-0.7,0.6-1,1.4-1,2.3
				C206.6,56.6,206.9,57.4,207.7,58.2z"/>
		</g>
		<g class="st0">
			<path class="st1" d="M219.3,73.6c0.7,1.1,1.5,1.8,2.6,2.1c1.1,0.3,2.1,0.2,3.1-0.3l0.9,1.5c-0.9,0.5-1.8,0.7-2.8,0.7
				c-1,0-2-0.3-2.9-0.9c-0.9-0.6-1.6-1.3-2.2-2.2c-1.2-1.8-1.4-3.7-0.9-5.5c0.6-1.9,1.9-3.5,4.1-4.8l0.5-0.3
				c1.4-0.9,2.7-1.4,4.1-1.6c1.3-0.2,2.6,0,3.7,0.5c1.1,0.5,2.1,1.4,2.8,2.6c1,1.5,1.3,3.1,1,4.6c-0.3,1.6-1.1,2.8-2.6,3.8l-0.9-1.5
				c1-0.8,1.7-1.7,1.9-2.8c0.2-1.1,0-2.2-0.7-3.3c-0.9-1.4-2.1-2.1-3.5-2.3s-3.1,0.4-4.9,1.5l-0.4,0.3c-1.8,1.1-2.9,2.4-3.4,3.8
				C218.2,70.8,218.4,72.2,219.3,73.6z"/>
		</g>
		<g class="st0">
			<path class="st1" d="M243.6,78l-3.8,1.7l1.4,3.1l-1.3,0.6l-1.4-3.1l-9.9,4.6c-0.8,0.4-1.4,0.8-1.6,1.3s-0.2,1.1,0.1,1.8
				c0.1,0.3,0.4,0.7,0.8,1.3l-1.3,0.7c-0.4-0.4-0.7-0.9-1-1.7c-0.5-1.1-0.6-2.1-0.1-2.9c0.4-0.8,1.3-1.5,2.5-2.1l9.9-4.6l-1.3-2.7
				l1.3-0.6l1.3,2.7l3.8-1.7L243.6,78z"/>
		</g>
		<g class="st0">
			<path class="st1" d="M228.8,96.4l-0.6-1.7l15.5-5.4l0.6,1.7L228.8,96.4z M248.1,87.4c0.3-0.1,0.6-0.1,0.9,0
				c0.3,0.1,0.5,0.4,0.6,0.7s0.1,0.7,0,1c-0.1,0.3-0.4,0.5-0.7,0.6c-0.3,0.1-0.6,0.1-0.9,0c-0.3-0.1-0.5-0.4-0.6-0.8s-0.1-0.7,0-1
				C247.5,87.8,247.8,87.6,248.1,87.4z"/>
		</g>
		<g class="st0">
			<path class="st1" d="M238.9,99.6c1.5-0.3,3-0.3,4.4,0c1.4,0.3,2.5,1,3.4,1.9c0.9,1,1.5,2.1,1.8,3.5c0.4,2.1,0,4-1.2,5.7
				c-1.2,1.6-3.1,2.7-5.5,3.2l-0.4,0.1c-1.6,0.3-3,0.3-4.4,0c-1.4-0.3-2.5-1-3.4-1.9s-1.5-2.1-1.8-3.5c-0.4-2.1,0-4,1.2-5.6
				c1.2-1.6,3.1-2.7,5.5-3.2L238.9,99.6z M238.8,101.5c-1.9,0.4-3.4,1.2-4.4,2.5c-1,1.2-1.4,2.7-1,4.3c0.3,1.6,1.2,2.8,2.6,3.5
				c1.4,0.7,3.2,0.9,5.2,0.5l0.3-0.1c1.2-0.3,2.3-0.7,3.2-1.4c0.9-0.7,1.6-1.5,2-2.4c0.4-0.9,0.5-1.9,0.3-3
				c-0.3-1.6-1.2-2.7-2.7-3.5s-3.2-0.9-5.2-0.5L238.8,101.5z"/>
		</g>
		<g class="st0">
			<path class="st1" d="M250.5,121.7l-2.8,0.1c1,0.6,1.8,1.3,2.4,2.2c0.6,0.9,0.9,1.9,0.9,3c0.1,1.8-0.4,3.1-1.4,4
				c-1,0.9-2.4,1.4-4.4,1.4l-10.7,0.3l-0.1-1.8l10.8-0.3c1.5-0.1,2.5-0.4,3.2-1c0.7-0.6,1-1.6,1-3c0-1.1-0.4-2.1-1.1-2.9
				c-0.7-0.8-1.7-1.5-2.9-1.8l-11.2,0.3l-0.1-1.8l16.4-0.5L250.5,121.7z"/>
		</g>
		<g class="st0">
			<path class="st1" d="M232.9,147.9l21.4,5.3l-1.5,6c-0.4,1.8-1.2,3.2-2.4,4.4c-1.1,1.2-2.6,2-4.2,2.4c-1.7,0.4-3.5,0.4-5.4-0.1
				l-2-0.5c-1.9-0.5-3.5-1.3-4.8-2.4c-1.3-1.1-2.2-2.5-2.6-4.1c-0.5-1.6-0.5-3.3,0-5.1L232.9,147.9z M252.3,154.6l-18.3-4.5l-1,4.1
				c-0.6,2.3-0.3,4.2,0.9,6c1.2,1.7,3,2.9,5.6,3.5l1.9,0.5c2.5,0.6,4.6,0.4,6.4-0.5c1.8-1,3-2.6,3.5-4.7L252.3,154.6z"/>
		</g>
		<g class="st0">
			<path class="st1" d="M224.2,173.5c0.6-1.3,1.4-2.3,2.5-3c1.1-0.7,2.3-1.1,3.7-1.2c1.4-0.1,2.8,0.2,4.1,0.9l0.6,0.3
				c1.4,0.7,2.6,1.5,3.5,2.6c0.9,1.1,1.4,2.3,1.6,3.6c0.2,1.3,0,2.5-0.5,3.7c-0.8,1.8-2.1,3-3.8,3.4c-1.7,0.5-3.6,0.2-5.8-0.7
				l-0.9-0.4l4.9-10.6l-0.3-0.1c-1.7-0.8-3.3-0.9-4.9-0.5c-1.6,0.4-2.7,1.4-3.4,2.9c-0.4,0.9-0.6,1.7-0.6,2.6c0,0.8,0.2,1.7,0.7,2.5
				l-1.3,0.7C223.2,178,223.1,175.8,224.2,173.5z M238.4,179.7c0.6-1.2,0.6-2.5,0.1-3.8c-0.5-1.3-1.5-2.3-2.9-3.2l-4.1,8.9l0.2,0.1
				c1.5,0.6,2.8,0.7,4.1,0.4C236.9,181.7,237.8,180.9,238.4,179.7z"/>
		</g>
		<g class="st0">
			<path class="st1" d="M217.5,193.7c0.7,0.5,1.5,0.6,2.4,0.3c0.9-0.3,1.8-1,2.9-2c1.1-1,2-1.8,2.8-2.2c0.8-0.4,1.5-0.7,2.2-0.7
				c0.7,0,1.4,0.2,2.1,0.7c1.1,0.7,1.7,1.8,1.8,3.1c0.1,1.4-0.3,2.8-1.3,4.2c-1,1.5-2.2,2.5-3.6,2.9c-1.4,0.4-2.7,0.2-3.9-0.6l1-1.5
				c0.8,0.5,1.7,0.7,2.7,0.3c1-0.3,1.8-1,2.5-2c0.7-1,1-1.9,0.9-2.8c0-0.9-0.4-1.6-1.1-2.1c-0.7-0.5-1.4-0.6-2.1-0.3
				c-0.7,0.2-1.7,0.9-2.9,2c-1.2,1.1-2.2,1.9-3,2.3c-0.8,0.4-1.5,0.6-2.3,0.6c-0.7,0-1.4-0.3-2.1-0.7c-1.1-0.8-1.8-1.9-1.8-3.2
				c-0.1-1.4,0.4-2.8,1.4-4.3c1.1-1.6,2.3-2.6,3.7-3.1c1.4-0.5,2.7-0.3,3.9,0.5l-1,1.5c-0.9-0.5-1.9-0.6-2.8-0.3
				c-1,0.4-1.8,1.1-2.6,2.2c-0.7,1-1,2-1,3C216.4,192.5,216.8,193.2,217.5,193.7z"/>
		</g>
		<g class="st0">
			<path class="st1" d="M208.1,198.5l1.2-1.4l12.4,10.8l-1.2,1.4L208.1,198.5z M225.5,210.7c0.3,0.2,0.4,0.5,0.4,0.8
				c0,0.3-0.1,0.6-0.3,0.9s-0.5,0.4-0.9,0.5c-0.3,0-0.6-0.1-0.9-0.3c-0.3-0.2-0.4-0.5-0.4-0.8c0-0.3,0.1-0.6,0.3-0.9
				c0.3-0.3,0.5-0.4,0.9-0.5C224.9,210.4,225.2,210.5,225.5,210.7z"/>
		</g>
		<g class="st0">
			<path class="st1" d="M210.1,208.9c1.7,1.9,2.6,3.8,2.8,5.7c0.1,1.9-0.5,3.5-2,4.8c-1.7,1.5-3.5,1.9-5.6,1.4l1.5,1.8l-1.3,1.1
				l-10.7-12c-1.4-1.6-2.1-3.2-2-4.9c0.1-1.7,0.9-3.2,2.4-4.6c0.9-0.8,1.8-1.3,2.9-1.6c1.1-0.3,2.2-0.3,3.2-0.1l0,1.5
				c-2-0.3-3.7,0.1-5,1.3c-1.1,1-1.7,2.1-1.8,3.4c0,1.2,0.5,2.4,1.5,3.7l1.4,1.5c-0.2-2,0.5-3.7,2.2-5.2c1.4-1.3,3.1-1.7,4.9-1.3
				c1.9,0.4,3.7,1.5,5.4,3.4L210.1,208.9z M208.5,209.9c-1.4-1.6-2.8-2.5-4.2-2.9s-2.7,0-3.8,1c-1.7,1.5-2.2,3.3-1.6,5.4l5.1,5.7
				c1,0.5,2,0.7,3,0.6c1-0.1,1.9-0.5,2.7-1.3c1.1-1,1.6-2.2,1.5-3.7C210.9,213.2,210,211.6,208.5,209.9z"/>
		</g>
		<g class="st0">
			<path class="st1" d="M197.1,229.7l-1.5-2.3c0,1.2-0.2,2.2-0.8,3.2c-0.5,0.9-1.2,1.7-2.2,2.3c-1.5,0.9-2.9,1.2-4.1,0.8
				c-1.2-0.4-2.4-1.4-3.4-3.1l-5.6-9.1l1.5-0.9l5.6,9.1c0.8,1.2,1.6,2,2.5,2.3c0.9,0.3,1.9,0.1,3-0.6c1-0.6,1.6-1.4,2-2.4
				c0.4-1,0.4-2.2,0.2-3.4l-5.8-9.5l1.5-0.9l8.5,13.9L197.1,229.7z"/>
		</g>
		<g class="st0">
			<path class="st1" d="M168.3,226c1.3-0.5,2.6-0.7,3.9-0.4c1.3,0.2,2.5,0.8,3.5,1.7c1,0.9,1.8,2.1,2.4,3.5l0.2,0.6
				c0.6,1.5,0.8,2.9,0.7,4.3c-0.1,1.4-0.5,2.6-1.3,3.7s-1.7,1.8-2.9,2.3c-1.8,0.7-3.6,0.7-5.2-0.1c-1.6-0.8-2.8-2.3-3.7-4.5
				l-0.4-0.9l10.9-4.3l-0.1-0.3c-0.7-1.7-1.8-3-3.2-3.7s-2.9-0.8-4.4-0.2c-0.9,0.4-1.6,0.8-2.2,1.4c-0.6,0.6-1,1.4-1.3,2.3l-1.4-0.4
				C164.5,228.5,166,226.9,168.3,226z M174.3,240.2c1.3-0.5,2.1-1.4,2.6-2.7c0.5-1.3,0.5-2.7,0.1-4.4l-9.1,3.6l0.1,0.2
				c0.6,1.4,1.5,2.5,2.7,3.1C171.8,240.7,173.1,240.7,174.3,240.2z"/>
		</g>
		<g class="st0">
			<path class="st1" d="M154.3,246c0.4,0,0.8-0.1,1.2-0.2c1.1-0.3,1.9-0.8,2.6-1.6c0.6-0.8,0.9-1.8,1-3.1l-2.7-10.9l1.7-0.4
				l3.9,15.9l-1.7,0.4l-0.7-2.5c-0.5,2.1-1.7,3.4-3.8,3.9c-0.5,0.1-0.9,0.2-1.2,0.1L154.3,246z"/>
		</g>
		<g class="st0">
			<path class="st1" d="M116.8,232.6l1.8,0.2l-2.6,21.8l-1.8-0.2L116.8,232.6z"/>
		</g>
		<g class="st0">
			<path class="st1" d="M104.2,247.1l0.6-2.7c-0.8,0.8-1.8,1.4-2.8,1.7c-1,0.3-2.1,0.3-3.1,0c-1.7-0.4-2.8-1.2-3.4-2.4
				c-0.6-1.2-0.6-2.7-0.2-4.6l2.7-10.4l1.7,0.5l-2.7,10.4c-0.4,1.4-0.3,2.6,0.1,3.4c0.4,0.8,1.3,1.4,2.6,1.8
				c1.1,0.3,2.1,0.2,3.1-0.3s1.9-1.2,2.6-2.3l2.8-10.9l1.7,0.5l-4.1,15.9L104.2,247.1z"/>
		</g>
		<g class="st0">
			<path class="st1" d="M82,244.2l1.6-3.9l-3.1-1.3l0.6-1.4l3.1,1.3l4.3-10.1c0.4-0.8,0.5-1.5,0.3-2.1c-0.1-0.5-0.5-1-1.3-1.3
				c-0.3-0.1-0.7-0.3-1.4-0.4l0.5-1.4c0.5,0,1.1,0.2,1.9,0.5c1.1,0.5,1.8,1.2,2.1,2.1c0.2,0.9,0.1,2-0.5,3.3l-4.3,10.1l2.8,1.2
				l-0.6,1.4l-2.8-1.2l-1.6,3.9L82,244.2z"/>
		</g>
		<g class="st0">
			<path class="st1" d="M77,218.4c1.2,0.7,2.1,1.6,2.7,2.8c0.6,1.2,0.9,2.4,0.8,3.8c-0.1,1.4-0.5,2.7-1.3,4l-0.3,0.6
				c-0.8,1.4-1.8,2.4-3,3.2c-1.2,0.8-2.4,1.2-3.7,1.3c-1.3,0.1-2.5-0.2-3.6-0.9c-1.7-1-2.7-2.4-3-4.2c-0.3-1.8,0.1-3.7,1.3-5.7
				l0.5-0.9l10.1,6l0.2-0.3c0.9-1.6,1.3-3.2,1-4.8c-0.3-1.6-1.1-2.8-2.5-3.6c-0.8-0.5-1.7-0.8-2.5-0.9c-0.8-0.1-1.7,0.1-2.6,0.4
				l-0.5-1.3C72.7,216.9,74.8,217.1,77,218.4z M69.4,231.8c1.2,0.7,2.4,0.9,3.7,0.5c1.3-0.4,2.5-1.2,3.5-2.6l-8.4-5l-0.1,0.2
				c-0.8,1.4-1,2.7-0.8,4C67.5,230.1,68.2,231.1,69.4,231.8z"/>
		</g>
		<g class="st0">
			<path class="st1" d="M52.7,219.5c0.3,0.3,0.6,0.6,0.9,0.8c0.9,0.7,1.8,1,2.8,1c1,0,2-0.4,3-1.1l7-8.8l1.4,1.1l-10.2,12.8
				l-1.4-1.1l1.6-2c-1.9,0.9-3.8,0.7-5.4-0.6c-0.4-0.3-0.7-0.6-0.8-0.9L52.7,219.5z"/>
		</g>
		<g class="st0">
			<path class="st1" d="M52.1,198c-0.2,0.5-0.7,1.1-1.4,1.8c1-0.1,2.1,0,3.1,0.4c1,0.4,1.9,1,2.6,1.8c1.1,1.1,1.6,2.4,1.7,3.7
				c0,1.3-0.4,2.4-1.4,3.4c-1.2,1.1-2.5,1.5-4.1,1.2c-1.6-0.3-3.2-1.3-4.8-3.1l-2.3-2.4l-1.3,1.3c-0.8,0.8-1.3,1.7-1.3,2.7
				c0,1,0.5,2,1.4,3c0.9,0.9,1.8,1.4,2.9,1.6c1,0.2,1.9-0.1,2.5-0.7L51,214c-0.9,0.9-2.2,1.2-3.7,1c-1.5-0.2-2.9-1-4.1-2.2
				c-1.3-1.3-1.9-2.7-2-4.1s0.5-2.7,1.6-3.8l5.6-5.3c1.1-1.1,1.9-2,2.2-2.8l0.1-0.1L52.1,198z M55.1,203.1c-0.8-0.9-1.8-1.5-2.9-1.7
				c-1.1-0.3-2.1-0.2-3.1,0.1l-2.6,2.5l2.2,2.3c1.3,1.3,2.5,2.1,3.6,2.4c1.2,0.3,2.2,0.1,3-0.7c0.7-0.6,1-1.4,1-2.3
				C56.2,204.7,55.8,203.9,55.1,203.1z"/>
		</g>
		<g class="st0">
			<path class="st1" d="M43,188c-0.7-1-1.6-1.7-2.7-2c-1.1-0.3-2.1-0.2-3.1,0.4l-1-1.4c0.9-0.5,1.8-0.8,2.8-0.8s2,0.3,2.9,0.8
				c0.9,0.5,1.7,1.2,2.3,2.1c1.2,1.8,1.5,3.6,1,5.5c-0.5,1.9-1.8,3.5-3.9,4.9l-0.5,0.3c-1.3,0.9-2.7,1.5-4,1.7
				c-1.3,0.2-2.6,0.1-3.7-0.4c-1.2-0.5-2.1-1.3-2.9-2.5c-1-1.5-1.4-3-1.2-4.6c0.2-1.6,1.1-2.9,2.5-3.9l1,1.4c-1,0.8-1.6,1.7-1.8,2.9
				s0.1,2.2,0.8,3.3c0.9,1.4,2.1,2.1,3.6,2.2c1.5,0.1,3.1-0.5,4.9-1.7l0.4-0.3c1.7-1.2,2.8-2.5,3.3-3.9
				C44.2,190.8,43.9,189.4,43,188z"/>
		</g>
		<g class="st0">
			<path class="st1" d="M18.6,184.3l3.8-1.9l-1.5-3l1.3-0.7l1.5,3l9.8-4.8c0.8-0.4,1.4-0.8,1.6-1.3c0.3-0.5,0.2-1.1-0.1-1.8
				c-0.1-0.3-0.4-0.7-0.8-1.2l1.3-0.7c0.4,0.4,0.7,0.9,1.1,1.6c0.5,1.1,0.6,2.1,0.2,2.9c-0.4,0.8-1.2,1.5-2.5,2.2l-9.8,4.8l1.3,2.7
				l-1.3,0.7l-1.3-2.7l-3.8,1.9L18.6,184.3z"/>
		</g>
		<g class="st0">
			<path class="st1" d="M13.9,174.9c-0.3,0.1-0.6,0.1-0.9,0c-0.3-0.1-0.5-0.4-0.7-0.7c-0.1-0.4-0.1-0.7,0-1c0.1-0.3,0.4-0.5,0.7-0.6
				c0.3-0.1,0.6-0.1,0.9,0c0.3,0.1,0.5,0.4,0.6,0.7c0.1,0.4,0.1,0.7,0,1C14.4,174.6,14.2,174.8,13.9,174.9z M32.9,165.5l0.6,1.7
				L18.2,173l-0.6-1.7L32.9,165.5z"/>
		</g>
		<g class="st0">
			<path class="st1" d="M22.7,162.5c-1.5,0.4-3,0.4-4.3,0.1c-1.4-0.3-2.5-0.9-3.5-1.8c-0.9-0.9-1.6-2.1-1.9-3.5
				c-0.5-2.1-0.2-4,1-5.7c1.2-1.7,3-2.8,5.5-3.4l0.4-0.1c1.5-0.4,3-0.4,4.4-0.1c1.4,0.3,2.5,0.9,3.4,1.8c0.9,0.9,1.5,2.1,1.9,3.5
				c0.5,2.1,0.2,4-1,5.7c-1.2,1.7-3,2.8-5.5,3.4L22.7,162.5z M22.8,160.7c1.9-0.4,3.4-1.3,4.3-2.6c1-1.3,1.3-2.7,0.9-4.3
				c-0.4-1.6-1.3-2.7-2.7-3.4c-1.5-0.7-3.2-0.8-5.2-0.3l-0.3,0.1c-1.2,0.3-2.3,0.8-3.2,1.5s-1.5,1.5-1.9,2.5c-0.4,0.9-0.4,1.9-0.2,3
				c0.4,1.6,1.3,2.7,2.8,3.4c1.5,0.7,3.2,0.8,5.2,0.3L22.8,160.7z"/>
		</g>
		<g class="st0">
			<path class="st1" d="M10.5,140.9l2.8-0.2c-1-0.6-1.9-1.3-2.4-2.2c-0.6-0.9-0.9-1.9-1-3c-0.1-1.8,0.3-3.1,1.2-4
				c0.9-0.9,2.4-1.4,4.4-1.6l10.7-0.6l0.1,1.8l-10.8,0.6c-1.5,0.1-2.5,0.5-3.2,1.1c-0.7,0.7-1,1.7-0.9,3c0.1,1.1,0.5,2.1,1.2,2.9
				c0.8,0.8,1.7,1.4,3,1.7l11.2-0.7l0.1,1.8l-16.4,1L10.5,140.9z"/>
		</g>
		<g class="st0">
			<path class="st1" d="M27.4,114.1l-21.6-4.8l1.4-6c0.4-1.8,1.2-3.3,2.3-4.5c1.1-1.2,2.5-2.1,4.2-2.5c1.7-0.4,3.5-0.5,5.4,0l2,0.4
				c1.9,0.4,3.6,1.2,4.9,2.3c1.3,1.1,2.2,2.5,2.7,4.1c0.5,1.6,0.5,3.3,0.1,5.2L27.4,114.1z M7.7,107.8l18.5,4.2l0.9-4.1
				c0.5-2.3,0.2-4.3-1-6c-1.2-1.7-3.1-2.9-5.7-3.4L18.6,98c-2.5-0.6-4.6-0.3-6.4,0.7c-1.8,1-3,2.6-3.5,4.8L7.7,107.8z"/>
		</g>
		<g class="st0">
			<path class="st1" d="M35.4,88.2c-0.5,1.3-1.3,2.3-2.4,3.1c-1.1,0.8-2.3,1.2-3.7,1.3c-1.4,0.1-2.8-0.2-4.2-0.7l-0.6-0.3
				c-1.4-0.6-2.6-1.4-3.6-2.5c-0.9-1.1-1.5-2.2-1.7-3.5c-0.2-1.3-0.1-2.5,0.4-3.7c0.8-1.8,2-3,3.7-3.6c1.7-0.5,3.6-0.4,5.8,0.6
				l0.9,0.4l-4.6,10.8l0.3,0.1c1.7,0.7,3.3,0.8,4.9,0.3c1.6-0.5,2.6-1.5,3.3-3c0.4-0.9,0.5-1.7,0.5-2.6s-0.3-1.7-0.8-2.5l1.2-0.7
				C36.2,83.7,36.3,85.9,35.4,88.2z M21,82.5c-0.5,1.3-0.5,2.5,0,3.8s1.6,2.3,3,3.1l3.8-9l-0.2-0.1c-1.5-0.6-2.8-0.7-4.1-0.3
				C22.4,80.4,21.6,81.3,21,82.5z"/>
		</g>
		<g class="st0">
			<path class="st1" d="M41.5,67.9c-0.8-0.5-1.6-0.6-2.4-0.3s-1.8,1-2.8,2.1c-1,1.1-1.9,1.8-2.7,2.3c-0.8,0.5-1.5,0.7-2.2,0.7
				c-0.7,0-1.4-0.2-2.1-0.6c-1.1-0.7-1.7-1.7-1.8-3.1c-0.1-1.4,0.3-2.8,1.2-4.2c1-1.5,2.2-2.5,3.5-3c1.4-0.4,2.6-0.3,3.9,0.5l-1,1.5
				c-0.8-0.5-1.7-0.6-2.7-0.3c-1,0.3-1.8,1-2.4,2c-0.6,1-0.9,2-0.9,2.8c0.1,0.9,0.4,1.6,1.2,2c0.7,0.4,1.4,0.5,2.1,0.3
				s1.6-1,2.8-2.1c1.2-1.1,2.1-1.9,2.9-2.4c0.8-0.4,1.5-0.7,2.2-0.7c0.7,0,1.4,0.2,2.1,0.7c1.2,0.7,1.8,1.8,1.9,3.2
				c0.1,1.4-0.3,2.8-1.3,4.3c-1,1.6-2.2,2.7-3.7,3.2c-1.4,0.5-2.7,0.4-3.9-0.4l1-1.5c0.9,0.5,1.9,0.6,2.8,0.2
				c0.9-0.4,1.8-1.1,2.5-2.3c0.7-1.1,1-2.1,0.9-3C42.6,69.1,42.3,68.4,41.5,67.9z"/>
		</g>
		<g class="st0">
			<path class="st1" d="M33.1,51.1c-0.3-0.2-0.4-0.5-0.5-0.8s0.1-0.6,0.3-0.9c0.2-0.3,0.5-0.5,0.9-0.5c0.3,0,0.6,0.1,0.9,0.3
				c0.3,0.2,0.4,0.5,0.4,0.8c0,0.3-0.1,0.6-0.3,0.9c-0.2,0.3-0.5,0.5-0.8,0.5C33.7,51.4,33.4,51.3,33.1,51.1z M50.8,62.9l-1.2,1.4
				L37,53.9l1.2-1.4L50.8,62.9z"/>
		</g>
		<g class="st0">
			<path class="st1" d="M48.5,52.5c-1.8-1.9-2.7-3.7-2.9-5.6c-0.2-1.9,0.4-3.5,1.8-4.8c1.6-1.5,3.5-2,5.5-1.5l-1.5-1.8l1.2-1.2
				l11,11.7c1.4,1.5,2.2,3.2,2.1,4.9c0,1.7-0.8,3.2-2.2,4.6c-0.8,0.8-1.8,1.3-2.9,1.7c-1.1,0.3-2.2,0.4-3.2,0.2l0-1.5
				c2,0.3,3.7-0.2,4.9-1.4c1.1-1,1.7-2.2,1.7-3.4c0-1.2-0.5-2.4-1.6-3.6l-1.4-1.5c0.3,2-0.4,3.7-2,5.2c-1.4,1.3-3,1.8-4.9,1.5
				c-1.9-0.3-3.7-1.4-5.5-3.3L48.5,52.5z M50.1,51.5c1.4,1.5,2.9,2.4,4.3,2.7c1.4,0.3,2.7-0.1,3.8-1.1c1.6-1.5,2.1-3.3,1.4-5.4
				l-5.2-5.6c-1-0.5-2-0.6-3-0.5s-1.8,0.6-2.7,1.4c-1.1,1-1.6,2.3-1.4,3.7C47.6,48.2,48.5,49.8,50.1,51.5z"/>
		</g>
		<g class="st0">
			<path class="st1" d="M60.9,31.3l1.6,2.3c0-1.2,0.2-2.3,0.7-3.2c0.5-1,1.2-1.7,2.1-2.3c1.5-1,2.8-1.3,4.1-0.9
				c1.3,0.4,2.4,1.4,3.5,3l5.9,9l-1.5,1l-5.9-9c-0.8-1.2-1.7-2-2.6-2.2c-0.9-0.3-1.9,0-3.1,0.7c-0.9,0.6-1.6,1.5-1.9,2.5
				c-0.3,1.1-0.4,2.2,0,3.4l6.2,9.4l-1.5,1l-9-13.8L60.9,31.3z"/>
		</g>
		<g class="st0">
			<path class="st1" d="M89.8,34.3c-1.3,0.6-2.6,0.7-3.9,0.6c-1.3-0.2-2.5-0.7-3.6-1.6c-1.1-0.9-1.9-2-2.5-3.4l-0.3-0.6
				c-0.6-1.4-0.9-2.9-0.9-4.3c0.1-1.4,0.4-2.7,1.2-3.8c0.7-1.1,1.7-1.9,2.8-2.4c1.8-0.8,3.6-0.8,5.2,0c1.6,0.8,2.9,2.3,3.8,4.4
				l0.4,0.9l-10.8,4.7l0.1,0.3c0.7,1.7,1.9,2.9,3.3,3.6c1.5,0.7,3,0.7,4.4,0.1c0.9-0.4,1.6-0.9,2.1-1.5c0.5-0.6,0.9-1.4,1.2-2.4
				l1.4,0.3C93.5,31.6,92.1,33.2,89.8,34.3z M83.3,20.2c-1.3,0.5-2.1,1.5-2.6,2.8c-0.5,1.3-0.4,2.8,0,4.4l9-3.9l-0.1-0.2
				c-0.7-1.4-1.6-2.4-2.8-3C85.8,19.6,84.6,19.6,83.3,20.2z"/>
		</g>
		<g class="st0">
			<path class="st1" d="M103.1,13.9c-0.4,0-0.8,0.1-1.2,0.2c-1.1,0.3-1.9,0.9-2.5,1.7c-0.6,0.8-0.9,1.8-0.9,3.1l3,10.8l-1.7,0.5
				l-4.4-15.7l1.7-0.5l0.7,2.5c0.4-2.1,1.6-3.5,3.6-4c0.5-0.1,0.9-0.2,1.2-0.1L103.1,13.9z"/>
		</g>
		<circle class="st1" cx="122.8" cy="15.3" r="7.6"/>
		<circle class="st1" cx="137.9" cy="242.3" r="7.6"/>
	</g>
</g>
</svg>
